<?xml version="1.0" encoding="utf-8"?>
<!-- Generator: Adobe Illustrator 24.2.0, SVG Export Plug-In . SVG Version: 6.00 Build 0)  -->
<svg version="1.1" id="Layer_1" xmlns="http://www.w3.org/2000/svg" xmlns:xlink="http://www.w3.org/1999/xlink" x="0px" y="0px"
	 viewBox="0 0 24 24" style="enable-background:new 0 0 24 24;" xml:space="preserve">
<style type="text/css">
	.st0{fill:#231F20;}
	.st1{fill:#FFFFFF;}
</style>
<path class="st0" d="M12,0C8.7,0,8.3,0,7.1,0.1c-4.4,0.2-6.8,2.6-7,7C0,8.3,0,8.7,0,12s0,3.7,0.1,4.9c0.2,4.4,2.6,6.8,7,7
	C8.3,24,8.7,24,12,24s3.7,0,4.9-0.1c4.4-0.2,6.8-2.6,7-7C24,15.7,24,15.3,24,12s0-3.7-0.1-4.9c-0.2-4.4-2.6-6.8-7-7
	C15.7,0,15.3,0,12,0z"/>
<polygon class="st1" points="7,11 2.8,16 2.8,7.9 "/>
<path class="st1" d="M2.8,6h18.4l-9.2,7.1C11.9,13,2.8,6,2.8,6z"/>
<polygon class="st1" points="8.2,11.7 11.9,14.6 15.7,11.7 21.1,18 2.8,18 "/>
<path class="st1" d="M16.9,11l4.3-3.2v8.1C21.1,15.9,16.9,11,16.9,11z"/>
</svg>
